<svg width="466" height="466" viewBox="0 0 466 466" fill="none" xmlns="http://www.w3.org/2000/svg">
<path fill-rule="evenodd" clip-rule="evenodd" d="M465.639 233.344C465.639 361.836 361.476 466 232.983 466C104.491 466 0.326904 361.836 0.326904 233.344C0.326904 104.851 104.491 0.6875 232.983 0.6875C361.476 0.6875 465.639 104.851 465.639 233.344ZM206.75 248.063C206.75 233.669 218.418 222 232.812 222C247.206 222 258.875 233.669 258.875 248.063V379.824C258.875 394.218 247.206 405.887 232.812 405.887C218.418 405.887 206.75 394.218 206.75 379.824V248.063ZM209.296 51.5298C235.71 51.5298 237.823 104.516 210.616 107.445C183.409 110.374 182.881 51.5298 209.296 51.5298ZM255.257 51.5298C281.671 51.5298 283.784 104.516 256.577 107.445C229.37 110.374 228.842 51.5298 255.257 51.5298ZM304.123 93.0669C323.406 105.049 297.784 147.119 280.615 132.74C263.445 118.362 284.841 81.0851 304.123 93.0669ZM187.372 181.2C197.029 185.982 205.491 184.63 215.406 183.045C220.949 182.159 226.947 181.2 233.861 181.2C240.452 181.2 246.581 182.227 252.235 183.174C263.124 184.998 272.256 186.528 279.558 179.869C290.652 169.751 281.407 111.439 233.861 109.575C186.315 107.711 172.315 173.745 187.372 181.2ZM159.636 93.0669C177.598 77.8899 202.428 119.96 183.674 132.74C164.919 145.521 141.674 108.244 159.636 93.0669Z" fill="black"/>
</svg>
