<svg width="466" height="463" viewBox="0 0 466 463" fill="none" xmlns="http://www.w3.org/2000/svg">
<path fill-rule="evenodd" clip-rule="evenodd" d="M73.9732 0.6875H394.339C433.657 0.6875 465.531 32.5614 465.531 71.8798V393.262C465.531 431.457 434.568 462.421 396.373 462.421H212.29V273.252C212.29 263.142 204.094 254.946 193.983 254.946H0.746826V73.9139C0.746826 33.4721 33.5314 0.6875 73.9732 0.6875ZM14.9853 295.627L169.574 450.216V297.661L14.9853 295.627ZM359.288 29.1648C378.693 29.1648 380.245 68.0011 360.258 70.1478C340.271 72.2945 339.883 29.1648 359.288 29.1648ZM393.052 29.1648C412.457 29.1648 414.009 68.0011 394.023 70.1478C374.036 72.2945 373.648 29.1648 393.052 29.1648ZM428.951 59.6093C443.117 68.3914 424.294 99.2262 411.681 88.6878C399.068 78.1494 414.786 50.8273 428.951 59.6093ZM343.182 124.206C350.277 127.711 356.493 126.72 363.777 125.558C367.849 124.909 372.255 124.206 377.335 124.206C382.177 124.206 386.679 124.959 390.833 125.653C398.832 126.99 405.541 128.112 410.905 123.231C419.055 115.815 412.263 73.0751 377.335 71.7091C342.406 70.343 332.121 118.742 343.182 124.206ZM322.807 59.6093C336.002 48.4854 354.243 79.3203 340.465 88.6878C326.688 98.0554 309.612 70.7333 322.807 59.6093Z" fill="black"/>
</svg>
