<svg width="466" height="466" viewBox="0 0 466 466" fill="none" xmlns="http://www.w3.org/2000/svg">
<path fill-rule="evenodd" clip-rule="evenodd" d="M232.656 466C361.149 466 465.312 361.836 465.312 233.344C465.312 104.851 361.149 0.6875 232.656 0.6875C104.164 0.6875 0 104.851 0 233.344C0 361.836 104.164 466 232.656 466ZM181.165 80.8539C241.828 80.8539 246.681 201.573 184.198 208.246C121.715 214.919 120.502 80.8539 181.165 80.8539ZM286.718 80.8539C347.381 80.8539 352.234 201.573 289.751 208.246C227.269 214.919 226.055 80.8539 286.718 80.8539ZM398.944 175.488C443.228 202.786 384.385 298.633 344.954 265.876C305.524 233.118 354.66 148.19 398.944 175.488ZM130.815 376.282C152.994 387.177 172.427 384.095 195.199 380.484L195.199 380.484C207.929 378.466 221.702 376.282 237.581 376.282C252.719 376.282 266.793 378.621 279.779 380.779C304.785 384.935 325.759 388.421 342.528 373.249C368.006 350.197 346.774 217.345 237.581 213.099C128.388 208.852 96.2369 359.296 130.815 376.282ZM67.1188 175.488C108.37 140.91 165.393 236.758 122.322 265.876C79.2513 294.994 25.868 210.066 67.1188 175.488Z" fill="black"/>
</svg>
