<svg width="463" height="464" viewBox="0 0 463 464" fill="none" xmlns="http://www.w3.org/2000/svg">
<path fill-rule="evenodd" clip-rule="evenodd" d="M0.28833 432.891V0.6875H369.854V247.661C294.688 240.502 212.363 332.67 265.158 432.891H0.28833ZM77.2438 76.7482V108.067H294.688V76.7482H77.2438ZM77.2438 170.705V139.386H294.688V170.705H77.2438ZM77.2438 200.235V231.554H294.688V200.235H77.2438ZM77.2438 293.297V261.978H186.413V293.297H77.2438ZM77.2438 324.617V355.936H186.413V324.617H77.2438ZM369.854 278.085C248.157 278.085 246.367 463.315 369.854 463.315C494.235 463.315 493.341 278.085 369.854 278.085ZM352.02 315.668C372.688 315.668 374.341 356.957 353.054 359.239C331.766 361.521 331.353 315.668 352.02 315.668ZM387.982 315.668C408.649 315.668 410.303 356.957 389.015 359.239C367.728 361.521 367.314 315.668 387.982 315.668ZM426.217 348.035C441.304 357.372 421.257 390.154 407.823 378.95C394.389 367.746 411.129 338.699 426.217 348.035ZM334.866 416.711C342.422 420.437 349.043 419.383 356.802 418.149C361.139 417.458 365.831 416.711 371.241 416.711C376.398 416.711 381.193 417.511 385.617 418.249H385.618C394.137 419.671 401.283 420.863 406.996 415.674C415.676 407.79 408.443 362.351 371.241 360.899C334.04 359.447 323.086 410.902 334.866 416.711ZM313.165 348.035C327.219 336.209 346.647 368.991 331.973 378.95C317.299 388.909 299.111 359.861 313.165 348.035Z" fill="black"/>
</svg>
